<?xml version="1.0" standalone="no"?>
<!DOCTYPE svg PUBLIC "-//W3C//DTD SVG 20010904//EN"
 "http://www.w3.org/TR/2001/REC-SVG-20010904/DTD/svg10.dtd">
<svg version="1.0" xmlns="http://www.w3.org/2000/svg"
 width="512.000000pt" height="512.000000pt" viewBox="0 0 512.000000 512.000000"
 preserveAspectRatio="xMidYMid meet">

<g transform="translate(0.000000,512.000000) scale(0.100000,-0.100000)"
fill="#000000" stroke="none">
<path d="M3109 4776 c-81 -23 -152 -68 -230 -146 -66 -67 -84 -93 -138 -202
-75 -155 -90 -165 -185 -128 -284 109 -513 88 -664 -60 -92 -91 -155 -266
-138 -386 l5 -42 -72 -17 c-216 -52 -405 -162 -561 -325 -169 -177 -277 -398
-308 -631 -6 -50 -17 -92 -22 -94 -6 -2 -41 -10 -78 -18 -327 -76 -598 -346
-689 -687 -20 -72 -23 -110 -23 -250 0 -324 76 -541 253 -721 111 -112 296
-228 341 -214 29 9 60 45 60 70 0 35 -24 58 -121 115 -157 94 -270 224 -326
377 -43 119 -56 198 -57 363 -1 134 2 166 22 234 66 227 227 419 433 516 35
16 106 40 158 54 148 38 176 67 195 207 36 248 121 426 285 590 122 121 261
204 428 256 82 25 100 27 273 27 174 0 191 -2 274 -27 241 -75 431 -219 570
-434 91 -140 122 -151 306 -108 215 50 468 -34 625 -208 53 -58 145 -220 145
-254 0 -28 44 -94 75 -113 16 -10 67 -25 111 -33 332 -62 571 -313 616 -647
24 -180 -18 -423 -98 -564 -36 -65 -135 -169 -204 -216 -85 -58 -255 -139
-266 -127 -2 2 3 37 12 78 22 100 14 268 -16 364 -41 132 -96 222 -195 321
-76 77 -105 98 -185 137 -115 57 -186 76 -305 84 -146 9 -298 -29 -432 -108
-54 -32 -177 -146 -235 -217 -31 -38 -55 -40 -168 -16 -302 64 -614 -132 -701
-441 -22 -77 -17 -246 8 -319 l21 -59 -137 7 c-206 10 -476 43 -669 81 -95 19
-183 35 -196 35 -27 0 -52 -25 -61 -62 -6 -22 -1 -33 21 -56 24 -23 49 -33
134 -51 243 -52 543 -87 910 -107 124 -6 125 -7 165 -41 55 -48 222 -128 330
-158 191 -55 300 -68 565 -69 218 -1 257 2 358 22 286 58 506 170 630 322 45
54 52 58 147 90 319 105 516 258 625 484 95 199 126 504 71 718 -25 98 -77
211 -136 295 -54 77 -52 84 42 123 281 115 445 348 406 576 -31 179 -181 346
-390 434 -115 49 -130 78 -94 175 86 226 91 403 13 555 -31 61 -65 86 -104 77
-63 -16 -74 -65 -33 -144 56 -107 53 -240 -10 -407 -72 -194 -27 -317 142
-385 272 -111 390 -311 295 -504 -46 -93 -118 -155 -257 -223 -62 -30 -124
-63 -139 -75 -14 -11 -30 -19 -34 -17 -32 15 -172 113 -172 120 0 6 7 37 15
69 39 150 37 369 -5 534 -80 312 -291 583 -572 734 -412 223 -917 171 -1281
-132 l-60 -50 -46 18 c-122 47 -308 85 -420 85 l-53 0 4 88 c5 104 34 170 99
226 60 51 126 71 234 71 79 -1 104 -6 211 -43 66 -23 137 -42 158 -42 111 0
181 54 243 188 51 110 85 162 145 220 101 99 232 125 351 70 91 -43 158 -120
227 -263 63 -129 90 -163 160 -194 66 -30 133 -27 225 10 91 36 190 59 261 59
40 0 55 5 72 23 29 31 28 72 -3 102 -20 21 -34 25 -85 25 -80 0 -195 -24 -287
-61 -40 -16 -82 -29 -92 -29 -33 0 -75 45 -101 106 -68 167 -176 291 -307 356
-75 37 -90 41 -175 44 -58 2 -110 -2 -139 -10z m382 -920 c119 -35 188 -67
284 -131 154 -102 269 -237 349 -406 87 -184 116 -393 82 -589 -9 -52 -20 -98
-25 -103 -4 -4 -41 -2 -82 5 l-73 14 -22 62 c-47 130 -94 202 -199 308 -89 90
-111 106 -205 152 -130 63 -196 81 -330 89 -97 5 -196 -6 -286 -32 -18 -6 -27
3 -57 52 -20 33 -50 77 -67 99 -54 68 -182 193 -238 231 l-54 38 38 32 c105
87 301 177 444 202 30 6 123 8 205 7 126 -3 164 -8 236 -30z m4 -2101 c271
-58 466 -284 482 -560 10 -185 -41 -321 -171 -451 -69 -69 -97 -89 -186 -132
-184 -90 -387 -132 -629 -132 -478 0 -837 131 -941 343 -121 248 56 555 351
608 62 11 81 10 177 -9 164 -33 220 -13 318 109 148 185 377 271 599 224z"/>
<path d="M1515 2687 c-126 -58 -172 -240 -69 -271 44 -13 94 31 94 83 0 43 72
68 104 36 8 -9 18 -31 22 -50 8 -43 36 -68 75 -68 106 0 90 176 -23 250 -49
33 -153 42 -203 20z"/>
<path d="M2770 2687 c-73 -24 -140 -120 -140 -201 0 -34 41 -76 75 -76 33 0
75 42 75 75 0 32 33 65 64 65 29 0 66 -42 66 -75 0 -29 40 -65 74 -65 16 0 38
11 53 26 22 23 25 31 19 71 -18 136 -157 223 -286 180z"/>
<path d="M2109 2640 c-141 -25 -212 -123 -195 -268 32 -274 342 -393 521 -201
59 63 87 126 93 211 9 126 -38 209 -137 243 -54 19 -216 28 -282 15z"/>
</g>
</svg>
